<?xml version="1.0" encoding="UTF-8" standalone="no"?><!-- Generator: Gravit.io --><svg xmlns="http://www.w3.org/2000/svg" xmlns:xlink="http://www.w3.org/1999/xlink" style="isolation:isolate" viewBox="0 0 1024 1024" width="1024pt" height="1024pt"><defs><clipPath id="_clipPath_TzLfNYkmL6zTRzC1P9CXRJyLaB59LD5W"><rect width="1024" height="1024"/></clipPath></defs><g clip-path="url(#_clipPath_TzLfNYkmL6zTRzC1P9CXRJyLaB59LD5W)"><rect width="1024" height="1024" style="fill:rgb(64,64,64)" fill-opacity="0"/><mask id="_mask_y594zf2f85xlYj8k6NgNPbq3YSBAoCM4" x="-200%" y="-200%" width="400%" height="400%"><rect x="-200%" y="-200%" width="400%" height="400%" style="fill:white;"/><path d=" M 177 378.542 L 65.505 490.211 L 177 607.24 L 177 775.655 L 520.427 983 L 880.34 775.655 L 880.34 607.458 L 991.835 495.789 L 880.34 378.76 L 880.34 155.323 L 526.57 63 L 177 155.323 L 177 378.542 Z " fill-rule="evenodd" fill="black" stroke="none"/></mask><path d=" M 177 378.542 L 65.505 490.211 L 177 607.24 L 177 775.655 L 520.427 983 L 880.34 775.655 L 880.34 607.458 L 991.835 495.789 L 880.34 378.76 L 880.34 155.323 L 526.57 63 L 177 155.323 L 177 378.542 Z " fill-rule="evenodd" fill="none" mask="url(#_mask_y594zf2f85xlYj8k6NgNPbq3YSBAoCM4)" vector-effect="non-scaling-stroke" stroke-width="20" stroke="rgb(255,255,255)" stroke-linejoin="round" stroke-linecap="butt" stroke-miterlimit="1.414"/><path d=" M 177 378.542 L 65.505 490.211 L 177 607.24 L 177 775.655 L 520.427 983 L 880.34 775.655 L 880.34 607.458 L 991.835 495.789 L 880.34 378.76 L 880.34 155.323 L 526.57 63 L 177 155.323 L 177 378.542 Z " fill-rule="evenodd" fill="none"/><path d=" M 659.034 338.973 L 364.966 338.973 L 364.966 598.335 L 508.554 685.027 L 659.034 598.335 L 659.034 338.973 Z " fill-rule="evenodd" fill="rgb(195,207,217)"/><path d=" M 659.034 338.973 L 364.966 338.973 L 364.966 598.335 L 508.554 685.027 L 659.034 598.335 L 659.034 338.973 Z " fill-rule="evenodd" fill="rgb(195,207,217)"/><path d=" M 659.034 338.973 L 364.966 338.973 L 364.966 598.335 L 508.554 685.027 L 659.034 598.335 L 659.034 338.973 Z " fill-rule="evenodd" fill="rgb(195,207,217)"/><linearGradient id="_lgradient_0" x1="0.5000000000000002" y1="-1.1102230246251565e-16" x2="0.49339434703251533" y2="0.9757612301530753" gradientTransform="matrix(669.766,0,0,876.084,193.787,84.958)" gradientUnits="userSpaceOnUse"><stop offset="0%" stop-opacity="1" style="stop-color:rgb(254,57,56)"/><stop offset="100%" stop-opacity="1" style="stop-color:rgb(250,87,88)"/></linearGradient><path d=" M 863.553 468.235 L 863.553 172.874 L 526.67 84.958 L 193.787 172.874 L 193.787 468.235 L 193.787 763.595 L 520.82 961.042 L 863.553 763.595 L 863.553 468.235 Z " fill-rule="evenodd" fill="url(#_lgradient_0)"/><clipPath id="_clipPath_onJzVoJ8XvUhmQs4IWO6iYukgaOalygP"><path d=" M 863.553 468.235 L 863.553 172.874 L 526.67 84.958 L 193.787 172.874 L 193.787 468.235 L 193.787 763.595 L 520.82 961.042 L 863.553 763.595 L 863.553 468.235 Z " fill-rule="evenodd" fill="url(#_lgradient_0)"/></clipPath><g clip-path="url(#_clipPath_onJzVoJ8XvUhmQs4IWO6iYukgaOalygP)"><linearGradient id="_lgradient_1" x1="0.4246079814707057" y1="0.8956228956228954" x2="0.4604943896409802" y2="0.0841750841750839" gradientTransform="matrix(84.442,0,0,900,437.405,79.958)" gradientUnits="userSpaceOnUse"><stop offset="0%" stop-opacity="1" style="stop-color:rgb(245,90,92)"/><stop offset="100%" stop-opacity="1" style="stop-color:rgb(255,255,255)"/></linearGradient><rect x="437.405" y="79.958" width="84.442" height="900" transform="matrix(1,0,0,1,0,0)" fill="url(#_lgradient_1)"/><linearGradient id="_lgradient_2" x1="0.4246079814707057" y1="0.8956228956228954" x2="0.4604943896409802" y2="0.0841750841750839" gradientTransform="matrix(84.442,0,0,900,535.493,79.958)" gradientUnits="userSpaceOnUse"><stop offset="0%" stop-opacity="1" style="stop-color:rgb(245,90,92)"/><stop offset="100%" stop-opacity="1" style="stop-color:rgb(255,255,255)"/></linearGradient><rect x="535.493" y="79.958" width="84.442" height="900" transform="matrix(1,0,0,1,0,0)" fill="url(#_lgradient_2)"/><linearGradient id="_lgradient_3" x1="0.4246079814707057" y1="0.8956228956228954" x2="0.4604943896409802" y2="0.0841750841750839" gradientTransform="matrix(84.442,0,0,900,633.582,79.958)" gradientUnits="userSpaceOnUse"><stop offset="0%" stop-opacity="1" style="stop-color:rgb(245,90,92)"/><stop offset="100%" stop-opacity="1" style="stop-color:rgb(255,255,255)"/></linearGradient><rect x="633.582" y="79.958" width="84.442" height="900" transform="matrix(1,0,0,1,0,0)" fill="url(#_lgradient_3)"/><linearGradient id="_lgradient_4" x1="0.4246079814707057" y1="0.8956228956228954" x2="0.4604943896409802" y2="0.0841750841750839" gradientTransform="matrix(84.442,0,0,900,731.67,79.958)" gradientUnits="userSpaceOnUse"><stop offset="0%" stop-opacity="1" style="stop-color:rgb(245,90,92)"/><stop offset="100%" stop-opacity="1" style="stop-color:rgb(255,255,255)"/></linearGradient><rect x="731.67" y="79.958" width="84.442" height="900" transform="matrix(1,0,0,1,0,0)" fill="url(#_lgradient_4)"/><linearGradient id="_lgradient_5" x1="0.4246079814707057" y1="0.8956228956228954" x2="0.4604943896409802" y2="0.0841750841750839" gradientTransform="matrix(84.442,0,0,900,339.317,79.958)" gradientUnits="userSpaceOnUse"><stop offset="0%" stop-opacity="1" style="stop-color:rgb(245,90,92)"/><stop offset="100%" stop-opacity="1" style="stop-color:rgb(255,255,255)"/></linearGradient><rect x="339.317" y="79.958" width="84.442" height="900" transform="matrix(1,0,0,1,0,0)" fill="url(#_lgradient_5)"/><linearGradient id="_lgradient_6" x1="0.4246079814707057" y1="0.8956228956228954" x2="0.4604943896409802" y2="0.0841750841750839" gradientTransform="matrix(84.442,0,0,900,241.229,79.958)" gradientUnits="userSpaceOnUse"><stop offset="0%" stop-opacity="1" style="stop-color:rgb(245,90,92)"/><stop offset="100%" stop-opacity="1" style="stop-color:rgb(255,255,255)"/></linearGradient><rect x="241.229" y="79.958" width="84.442" height="900" transform="matrix(1,0,0,1,0,0)" fill="url(#_lgradient_6)"/></g><g><circle vector-effect="non-scaling-stroke" cx="528.6700669896952" cy="329.7346386335984" r="172.5" fill="rgb(252,73,73)"/><path d=" M 523.335 173.595 C 487.235 174.843 452.678 188.54 425.526 212.364 L 473.541 212.364 L 523.335 186.755 L 523.335 173.595 Z  M 534.005 173.595 L 534.005 186.755 L 583.799 212.364 L 631.814 212.364 C 604.663 188.54 570.105 174.843 534.005 173.595 Z  M 414.5 223.034 C 398.175 240.34 386.012 261.14 378.933 283.853 L 407.387 332.936 L 448.289 326.534 L 485.634 262.157 L 470.696 223.034 L 414.5 223.034 L 414.5 223.034 Z  M 586.644 223.034 L 571.706 262.157 L 609.052 326.534 L 649.954 332.936 L 678.052 284.209 C 671.126 261.402 659.083 240.478 642.84 223.034 L 586.644 223.034 Z  M 497.727 269.271 L 461.804 331.869 L 493.459 386.642 L 563.881 386.642 L 595.536 331.869 L 559.613 269.271 L 497.727 269.271 Z  M 375.376 298.791 C 373.284 308.974 372.212 319.339 372.175 329.735 C 372.204 355.422 378.556 380.707 390.67 403.358 L 403.83 395.534 L 401.34 343.961 L 375.376 298.791 Z  M 681.964 299.147 L 656 343.961 L 653.51 395.534 L 666.67 403.358 C 678.784 380.707 685.136 355.422 685.165 329.735 C 685.105 319.458 684.033 309.213 681.964 299.147 L 681.964 299.147 Z  M 493.459 400.869 L 466.072 434.657 L 493.459 481.961 C 504.996 484.714 516.809 486.146 528.67 486.229 C 540.531 486.146 552.344 484.714 563.881 481.961 L 591.268 434.657 L 563.881 400.869 L 493.459 400.869 Z  M 408.454 405.492 L 396.005 412.606 C 415.124 443.298 444.281 466.423 478.521 478.049 L 453.624 434.302 L 408.454 405.492 L 408.454 405.492 Z  M 648.887 405.492 L 603.716 434.302 L 578.82 477.693 C 613.005 466.158 642.155 443.165 661.335 412.606 L 648.887 405.492 Z " fill="rgb(255,255,255)"/></g><linearGradient id="_lgradient_7" x1="0" y1="0.5" x2="1" y2="0.5" gradientTransform="matrix(888.835,0,0,316.335,84.253,309.654)" gradientUnits="userSpaceOnUse"><stop offset="0%" stop-opacity="1" style="stop-color:rgb(253,66,66)"/><stop offset="97.82608695652173%" stop-opacity="1" style="stop-color:rgb(125,11,11)"/></linearGradient><path d=" M 528.67 625.989 L 528.67 309.654 L 195.585 378.249 L 84.253 488.135 L 195.585 603.297 L 528.67 625.989 Z  M 528.67 309.654 C 527.355 355.833 527.405 461.328 528.67 625.989 L 861.755 603.297 L 973.088 493.41 L 861.755 378.249 L 528.67 309.654 Z " fill-rule="evenodd" fill="url(#_lgradient_7)"/><linearGradient id="_lgradient_8" x1="0" y1="0.5" x2="1" y2="0.5" gradientTransform="matrix(870.088,0,0,290.006,103,322.819)" gradientUnits="userSpaceOnUse"><stop offset="0%" stop-opacity="1" style="stop-color:rgb(253,66,66)"/><stop offset="97.82608695652173%" stop-opacity="1" style="stop-color:rgb(125,11,11)"/></linearGradient><path d=" M 538.044 612.825 L 538.044 322.819 L 211.985 385.704 L 103 486.444 L 211.985 592.021 L 538.044 612.825 Z  M 538.044 322.819 C 536.756 365.154 536.805 461.869 538.044 612.825 L 864.103 592.021 L 973.088 491.28 L 864.103 385.704 L 538.044 322.819 Z " fill-rule="evenodd" fill="url(#_lgradient_8)"/><text transform="matrix(1,0,0,1,291.772,516.735)" style="font-family:'Luckiest Guy';font-weight:400;font-size:160px;font-style:normal;fill:#fffafa;stroke:none;">WALIA </text><text transform="matrix(1,0,0,1,405.449,589.547)" style="font-family:'Luckiest Guy';font-weight:400;font-size:36px;font-style:normal;fill:#fffafa;stroke:none;">FOOTBALL CLUB</text><clipPath id="_clipPath_R1xmPSosgi28Sec0YaNVOJ95GfXvdhVm"><circle vector-effect="non-scaling-stroke" cx="487.7410808673505" cy="745.7410808673504" r="175.7410808673505" fill="rgb(255,255,255)"/></clipPath><g clip-path="url(#_clipPath_R1xmPSosgi28Sec0YaNVOJ95GfXvdhVm)"><path d=" M 525.838 589.792 C 525.471 589.825 523.472 589.952 521.416 590.057 C 507.502 590.867 493.265 593.92 482.265 598.437 C 466.634 604.887 454.905 613.88 446.224 626.124 C 443.777 629.553 442.62 631.493 440.071 636.432 C 435.393 645.457 432.405 658.662 432.278 670.948 C 432.072 689.161 437.347 708.651 447.435 726.876 C 448.403 728.649 449.197 730.133 449.174 730.191 C 449.152 730.248 448.759 730.516 448.302 730.78 C 446.719 731.712 443.2 734.257 441.039 736.048 C 438.714 737.975 434.763 741.569 434.643 741.877 C 434.598 741.992 434.675 742.531 434.802 743.113 C 435.377 745.552 435.352 749.019 434.716 751.893 C 434.295 753.877 432.43 758.198 431.215 760.004 C 429.213 763.031 425.757 766.664 422.437 769.265 L 420.778 770.565 L 420.561 772.252 C 420.386 773.778 420.36 775.828 420.448 780.934 C 420.482 782.829 420.163 786.027 419.757 787.972 C 419.573 788.897 418.344 792.27 416.322 797.504 L 413.188 805.581 L 413.756 807.132 C 414.073 807.964 414.661 810.032 415.046 811.71 C 416.033 815.817 417.613 819.424 419.795 822.513 C 420.728 823.808 421.727 825.106 422.032 825.402 C 422.878 826.242 425.683 827.847 427.051 828.315 C 428.245 828.715 428.291 828.711 429.007 828.127 C 429.422 827.802 430.056 827.142 430.432 826.691 C 430.815 826.22 431.168 825.827 431.221 825.803 C 431.275 825.78 431.54 826.348 431.81 827.074 C 432.276 828.319 433.561 830.017 434.195 830.265 C 434.368 830.332 434.818 830.087 435.202 829.728 C 437.149 827.92 440.227 827.24 442.54 828.121 C 443.259 828.38 444.194 828.878 444.633 829.227 C 445.608 829.962 446.495 831.548 446.514 832.575 C 446.537 833.425 446.027 834.843 445.488 835.429 C 445.135 835.823 445.158 835.876 445.638 836.064 C 445.927 836.177 446.701 836.235 447.363 836.184 C 448.045 836.14 448.65 836.178 448.705 836.265 C 449.022 836.699 448.785 839.065 448.216 840.747 C 447.517 842.933 446.795 844.045 445.14 845.503 C 442.858 847.49 439.842 848.35 436.972 847.76 L 435.718 847.513 L 434.401 849.125 C 432.528 851.427 431.669 852.775 430.519 855.094 C 427.847 860.517 427.192 866.218 428.557 872.022 C 429.385 875.513 431.778 880.102 434.505 883.382 C 436.544 885.817 440.456 889.294 442.658 890.575 C 443.323 890.968 443.3 890.915 442.416 890.06 C 436.833 884.623 434.113 878.49 434.691 872.647 C 434.902 870.293 436.369 866.593 437.843 864.577 C 439.359 862.512 443.409 858.89 443.967 859.107 C 444.063 859.145 444.036 859.666 443.926 860.288 C 443.542 862.463 444.199 865.598 445.424 867.45 L 445.793 868.037 L 445.783 867.214 C 445.767 866.233 446.509 864.22 447.35 862.976 C 448.239 861.662 449.542 860.311 453.861 856.285 C 459.332 851.18 460.804 849.341 462.587 845.343 C 465.681 838.446 465.358 830.768 461.788 825.564 C 460.796 824.136 459.181 822.486 457.883 821.558 C 457.39 821.233 456.981 820.918 456.958 820.865 C 456.946 820.838 457.266 820.586 457.67 820.346 C 458.81 819.639 459.512 818.806 459.992 817.576 C 460.232 816.962 460.392 816.382 460.365 816.282 C 460.33 816.202 459.884 816.493 459.385 816.919 C 456.993 819.018 451.894 818.975 449.41 816.831 C 447.145 814.861 447.127 812.13 449.363 808.729 C 450.177 807.497 452.565 804.842 455.267 802.177 C 456.202 801.258 457.635 799.802 458.451 798.903 L 459.917 797.305 L 459.153 797.162 C 457.833 796.912 456.151 797.251 453.887 798.227 C 452.665 798.747 451.707 799.103 451.744 799.007 C 451.917 798.565 454.205 796.846 455.716 796.04 C 459.389 794.065 463.589 793.801 468.002 795.26 L 470.026 795.917 L 471.293 795.283 C 477.069 792.401 481.609 788.151 485.071 782.35 L 485.872 780.98 L 485.076 779.274 C 483.187 775.325 483.891 771.481 487.134 767.942 C 488.163 766.838 490.922 764.594 490.213 765.446 C 487.952 768.173 487.036 769.609 486.203 771.742 C 485.378 773.855 485.337 774.017 485.471 775.486 C 485.607 777.178 486.341 778.816 487.539 780.17 L 488.293 781.018 L 487.307 783.202 C 486.042 785.985 484.37 788.566 482.691 790.257 C 481.98 790.998 481.407 791.616 481.43 791.669 C 481.461 791.703 481.994 792.266 482.589 792.897 C 487.963 798.473 491.737 806.215 493.095 814.475 C 493.679 818.025 494.014 824.025 493.64 824.189 C 493.587 824.212 493.473 823.88 493.397 823.451 C 492.949 821.084 491.669 816.819 490.696 814.379 C 490 812.646 487.963 808.904 487.776 808.986 C 487.722 809.009 487.733 809.833 487.794 810.809 C 488.186 817.629 487.322 826.814 485.722 832.722 C 484.079 838.857 482.063 842.033 477.397 845.813 L 475.631 847.272 L 474.531 850.031 C 473.105 853.682 472.664 856.566 472.992 860.149 L 473.139 861.757 L 474.247 860.395 C 475.889 858.402 477.621 857.484 477.066 858.905 C 476.563 860.193 475.91 863.791 475.789 865.914 C 475.618 868.904 475.714 869.849 476.517 873.463 C 477.816 879.263 478.965 883.012 480.768 887.127 C 482.817 891.803 484.422 894.268 487.136 896.901 C 490.287 899.948 491.373 901.192 493.249 903.873 C 495.407 906.909 496.868 909.406 498.438 912.699 C 499.046 913.978 499.696 915.317 499.887 915.679 L 500.206 916.336 L 500.386 914.346 C 500.981 907.381 499.957 902.463 497.037 898.089 C 494.706 894.587 493.05 891.571 491.442 887.864 C 489.197 882.669 488.055 878.28 487.674 873.304 C 487.541 871.546 487.583 868.263 487.741 867.86 C 487.809 867.687 488.072 869.052 488.281 870.728 C 488.355 871.333 488.687 873.035 489.017 874.515 C 490.852 882.629 494.427 889.407 499.937 895.258 C 503.128 898.653 508.98 902.268 517.954 906.394 C 519.8 907.225 521.549 908.019 521.856 908.14 C 522.817 908.515 522.324 908.699 520.99 908.487 C 520.084 908.311 516.946 907.218 510.859 904.884 L 502.022 901.542 L 502.426 902.719 C 503.769 906.876 504.384 912.387 503.926 916.394 C 503.676 918.621 503.867 919.892 504.707 921.482 C 505.321 922.63 507.763 926.131 507.897 926.072 C 507.95 926.049 507.891 925.406 507.766 924.648 C 507.37 922.035 507.27 915.884 507.664 915.728 C 507.69 915.716 507.914 916.844 508.144 918.241 C 508.373 919.637 508.971 922.926 509.49 925.565 C 512.038 938.542 512.469 943.45 511.635 949.325 C 511.012 953.754 510.982 956.666 511.507 964.334 C 511.833 969.511 511.864 973.908 511.567 976.427 C 511.392 978.064 511.179 978.779 510.094 981.5 C 508.706 985.054 508.173 986.02 504.775 991.203 C 499.935 998.547 498.143 1001.944 497.346 1005.287 C 497.043 1006.63 497.05 1007.01 497.49 1008.887 C 498.609 1013.62 498.297 1016.798 496.456 1019.357 C 494.524 1022.035 490.808 1023.44 486.401 1023.158 L 484.968 1023.085 L 482.191 1025.034 C 478.77 1027.44 475.598 1030.232 473.043 1033.087 C 470.849 1035.53 467.575 1039.942 467.715 1040.263 C 467.774 1040.396 469.212 1041.136 470.916 1041.934 C 476.434 1044.533 483.321 1046.404 489.85 1047.094 C 491.591 1047.287 493.082 1047.382 493.181 1047.355 C 493.482 1047.207 495.675 1043.634 496.738 1041.48 C 497.304 1040.373 498.236 1038.212 498.818 1036.668 C 499.991 1033.494 500.68 1032.412 502.699 1030.588 C 504.22 1029.189 505.596 1028.331 507.421 1027.627 C 509.193 1026.946 510.605 1026.789 512.282 1027.09 C 514.618 1027.515 516.212 1028.935 517.325 1031.584 L 518 1033.199 L 518.511 1031.494 C 519.471 1028.414 519.449 1026.147 518.379 1021.233 C 518.025 1019.589 517.691 1017.665 517.624 1016.93 C 517.498 1015.042 517.918 1013.058 518.769 1011.619 C 520.16 1009.305 520.787 1004.014 520.149 999.867 C 519.601 996.11 519.862 991.871 520.923 987.17 C 521.397 985.051 521.921 983.595 524.951 976.009 C 526.847 971.213 528.787 966.191 529.228 964.835 L 530.032 962.381 L 529.234 963.176 C 528.174 964.246 526.628 966.388 525.559 968.274 C 524.136 970.84 523.995 970.52 525.267 967.606 C 526.952 963.746 528.527 961.527 530.929 959.631 C 531.983 958.802 532.109 958.652 532.633 957.196 C 533.267 955.517 534.255 950.211 534.341 948.119 C 534.443 945.59 534.818 941.683 535.214 939.026 C 536.862 928.175 540.995 920.599 549.074 913.524 L 551.227 911.641 L 550.636 909.528 C 549.839 906.692 549.549 904.43 549.69 902.027 C 549.833 899.735 550.273 897.759 550.618 897.894 C 550.734 897.939 550.792 898.073 550.747 898.188 C 550.545 898.707 551 902.871 551.418 904.407 C 551.967 906.46 553.831 910.532 555.029 912.285 C 555.502 913.001 555.971 913.672 556.037 913.786 C 556.11 913.881 555.1 914.483 553.768 915.114 C 548.548 917.593 545.96 919.682 543.062 923.755 C 542.006 925.269 541.534 926.192 540.23 929.248 L 538.658 932.93 L 542.719 934.384 C 552.827 938.045 561.993 939.411 571.384 938.672 L 574.833 938.403 L 575.795 937.472 C 579.445 934.026 585.241 931.263 590.689 930.357 C 595.26 929.596 598.438 930.816 599.511 933.738 C 599.958 934.975 599.879 936.65 599.341 937.347 C 599.166 937.567 598.928 937.895 598.807 938.091 C 598.667 938.28 599.591 937.954 600.869 937.347 C 602.14 936.758 603.205 936.244 603.22 936.205 C 603.235 936.167 603.135 935.685 603 935.123 C 602.686 933.716 602.346 929.995 602.299 927.054 C 602.277 925.694 602.457 920.981 602.694 916.577 C 603.143 908.116 603.192 904.304 602.918 901.207 C 602.486 896.476 601.044 892.569 598.943 890.352 C 598.309 889.706 597.621 888.972 597.405 888.733 C 597.069 888.402 597.218 888.416 598.38 888.959 C 599.491 889.459 599.976 889.804 600.935 890.865 C 604.282 894.542 605.164 900.335 604.922 917.337 C 604.76 927.727 604.899 932.078 605.596 939.193 C 606.298 946.466 607.568 952.853 609.393 958.327 C 610.124 960.539 610.291 960.848 610.848 961.066 C 612.916 961.896 619.656 964.994 621.902 966.16 C 625.364 967.955 630.504 971.181 633.599 973.52 C 646.7 983.466 654.962 996.216 658.413 1011.871 C 659.622 1017.393 660.296 1023.946 660.058 1028.127 C 659.666 1035.592 657.907 1043.099 655.337 1048.429 C 653.401 1052.478 653.318 1053.996 654.684 1060.022 C 655.884 1065.341 655.666 1067.315 653.739 1068.733 C 652.315 1069.771 649.796 1070.891 646.899 1071.73 C 642.848 1072.916 642.76 1072.97 641.085 1075.217 C 640.286 1076.3 638.684 1078.642 637.553 1080.459 C 636.404 1082.268 634.67 1084.891 633.697 1086.305 C 631.63 1089.329 631.365 1090.177 632.116 1091.6 L 632.532 1092.405 L 633.951 1092.627 C 642.753 1093.962 653.589 1093.323 660.018 1091.095 L 661.374 1090.628 L 660.821 1089.039 C 659.609 1085.51 659.518 1082.794 660.516 1080.128 C 661.352 1077.93 662.255 1076.866 663.938 1076.128 C 665.462 1075.461 666.523 1075.521 668.38 1076.379 C 669.726 1077.016 670.618 1077.851 671.761 1079.516 C 672.06 1079.943 672.335 1080.316 672.392 1080.339 C 672.527 1080.391 672.87 1078.776 673.078 1076.997 C 673.369 1074.608 672.846 1072.543 670.944 1068.456 C 669.615 1065.567 669.359 1064.803 669.276 1063.486 C 669.168 1062.004 669.205 1061.797 669.986 1059.799 C 670.71 1058 671.035 1057.396 672.335 1055.712 L 673.848 1053.711 L 673.947 1051.359 C 674.077 1048.929 673.824 1045.552 673.122 1040.207 C 671.51 1027.95 672.106 1019.169 675.433 1006.229 C 676.577 1001.715 677.935 997.218 678.851 994.874 C 679.556 993.068 679.478 992.816 677.541 990.687 C 675.926 988.926 674.121 987.424 669.886 984.374 C 663.247 979.544 660.931 976.8 659.703 972.29 C 658.783 968.919 658.684 965.602 659.411 962.72 C 659.567 962.094 660.369 960.325 661.296 958.518 C 663.288 954.667 666.656 946.216 667.66 942.512 C 668.986 937.758 670.057 931.445 669.884 929.45 C 669.743 927.712 669.286 924.632 668.762 921.947 C 668.53 920.727 668.361 919.687 668.383 919.629 C 668.406 919.571 668.314 919.07 668.198 918.516 C 667.79 916.784 667.889 916.756 668.538 918.383 C 669.374 920.437 670.088 922.975 670.962 926.86 C 671.634 929.846 671.671 930.148 671.369 932.112 C 670.191 940.001 672.644 945.854 678.821 949.884 C 679.51 950.33 681.422 951.276 683.09 951.994 L 686.127 953.291 L 685.067 952.036 C 682.936 949.498 682.126 946.524 682.879 943.917 C 683.244 942.642 683.271 942.631 683.713 942.803 C 683.963 942.901 684.995 943.548 686.011 944.233 C 695.602 950.748 699.627 959.606 697.785 970.159 C 697.449 972.154 696.38 975.967 695.418 978.713 L 694.931 980.073 L 696.655 977.757 C 701.612 971.079 704.52 965.903 706.38 960.517 C 708.184 955.22 708.729 951.159 708.383 945.753 C 708.305 944.593 708.158 943.495 708.049 943.319 C 707.941 943.144 707.179 942.315 706.36 941.464 C 704.105 939.187 700.311 934.273 700.469 933.869 C 700.506 933.773 701.114 933.634 701.823 933.579 C 703.79 933.417 706.56 934.433 709.061 936.251 L 709.496 936.554 L 709.166 935.982 C 708.572 934.953 706.586 932.893 705.257 931.931 C 703.75 930.855 701.487 929.904 697.651 928.782 C 694.08 927.719 690.936 927.376 687.283 927.655 L 684.32 927.87 L 681.438 926.744 C 679.036 925.806 678.317 925.437 677.096 924.539 C 675.535 923.375 673.299 921.106 671.808 919.195 C 665.502 911.018 660.781 895.155 660.579 881.5 L 660.538 878.716 L 659.084 877.107 C 653.565 871.053 646.246 865.071 638.948 860.625 C 636.915 859.366 636.511 859.209 634.419 858.613 C 633.144 858.247 631.233 857.811 630.151 857.632 C 623.358 856.484 621.935 856.216 619.957 855.665 C 616.755 854.79 614.166 853.425 610.867 850.873 C 604.695 846.093 604.406 845.869 602.51 844.884 C 601.09 844.153 601.117 844.141 601.314 846.189 C 601.407 847.31 601.167 849.852 600.953 849.946 C 600.873 849.981 600.762 849.472 600.672 848.795 C 600.037 843.675 598.063 837.389 595.458 832.097 C 595.018 831.239 594.705 830.452 594.75 830.337 C 594.863 830.049 596.179 830.364 597.241 830.934 L 598.195 831.439 L 597.207 830.057 C 594.639 826.484 590.096 824.111 583.909 823.112 C 583.073 822.984 582.305 822.795 582.185 822.704 C 581.904 822.461 583.21 821.953 584.717 821.722 C 585.375 821.625 585.819 821.51 585.723 821.473 C 585.627 821.435 584.319 821.323 582.821 821.247 C 578.659 821.016 577.323 820.694 574.845 819.327 C 571.967 817.738 570.395 816.548 569.538 815.283 C 566.142 810.258 563.229 803.428 562.4 798.52 C 562.03 796.294 561.793 793.101 562 793.026 C 562.107 792.979 562.637 793.209 563.168 793.549 C 563.707 793.871 564.165 794.116 564.188 794.058 C 564.203 794.02 563.916 793.11 563.566 792.021 C 562.765 789.649 560.195 783.928 558.921 781.747 C 551.593 768.985 539.499 757.483 520.812 745.51 L 517.82 743.588 L 516.446 743.649 C 511.759 743.855 505.235 745.758 498.159 749.018 C 495.049 750.46 494.964 750.449 497.301 748.948 C 503.729 744.793 510.082 742.137 515.553 741.285 C 517.317 741.022 517.584 740.905 518.722 739.976 C 520.282 738.703 522.176 736.918 523.394 735.556 C 524.286 734.576 524.475 734.207 526.034 730.386 C 526.958 728.134 528.061 725.708 528.461 725.023 C 530.611 721.279 535.313 712.02 534.966 712.172 C 534.905 712.215 534.106 712.9 533.17 713.708 C 530.127 716.395 527.49 718.044 523.123 720.037 C 518.028 722.365 512.843 724.015 503.897 726.167 C 490.237 729.446 485.485 731.576 482.256 735.873 C 481.513 736.867 481.444 736.929 481.505 736.377 C 481.733 734.318 485.403 730.481 489.243 728.304 L 490.52 727.586 L 489.991 727.069 C 489.706 726.78 488.86 725.94 488.119 725.23 L 486.748 723.919 L 485.223 723.855 C 482.05 723.701 475.43 723.13 475.379 722.977 C 475.089 722.133 474.023 717.774 473.33 714.558 C 469.685 697.587 469.819 681.428 473.786 666.568 C 474.7 663.094 478.286 654.086 479.887 651.234 C 481.835 647.721 484.363 643.859 486.319 641.345 C 503.45 619.491 532.297 609.766 569.219 613.383 C 571.032 613.56 573.805 613.89 575.354 614.119 C 576.911 614.329 578.241 614.494 578.322 614.459 C 578.455 614.4 575.751 613.499 571.366 612.14 C 558.716 608.239 545.621 606.157 533.7 606.173 C 529.115 606.176 522.332 606.759 518.029 607.514 C 506.014 609.641 495.014 614.158 485.862 620.748 C 473.336 629.74 464.038 642.031 457.951 657.613 C 452.528 671.551 450.189 686.494 450.757 703.746 C 450.786 704.976 450.532 704.323 450.285 702.632 C 449.662 698.048 449.339 692.185 449.435 687.063 C 449.489 684.714 449.933 678.93 450.155 677.511 C 450.213 677.135 450.144 675.669 449.994 674.237 C 448.26 658.722 451.921 642.833 460.184 630.072 C 471.235 612.952 490.617 600.016 516.33 592.588 C 519.85 591.571 521.597 591.124 525.313 590.229 C 526.9 589.852 527.082 589.724 525.838 589.792 Z  M 511.412 728.926 C 511.046 729.182 509.707 729.833 508.451 730.383 C 506.127 731.401 504.272 731.784 502.439 731.6 C 501.906 731.546 501.145 731.625 500.732 731.774 C 499.22 732.357 494.918 734.752 493.124 736 C 491.254 737.329 489.272 739.057 489.358 739.29 C 489.506 739.591 492.95 739.054 495.021 738.401 C 496.274 738.027 497.462 737.65 497.661 737.595 C 498.265 737.41 496.713 738.376 495.16 739.12 C 493.104 740.133 491.177 740.643 489.446 740.653 C 487.707 740.682 487.639 740.744 486.376 743.351 C 485.547 745.021 485.547 745.021 485.617 744.162 C 485.667 743.694 485.994 742.516 486.362 741.574 C 487.953 737.501 492.06 734.189 499.294 731.146 C 502.238 729.904 502.528 729.841 503.22 730.111 C 504.315 730.539 506.768 730.212 509.546 729.282 C 510.875 728.827 511.998 728.446 512.037 728.462 C 512.075 728.477 511.789 728.697 511.412 728.926 Z  M 503.86 770.933 C 520.542 785.09 530.86 803.406 535.285 826.772 C 535.677 828.829 535.913 830.494 535.802 830.495 C 535.495 830.486 532.98 826.89 531.718 824.736 C 529.406 820.732 527.87 816.898 525.227 808.469 C 522.707 800.464 521.251 796.596 519.168 792.46 C 515.182 784.525 509.823 777.381 502.568 770.384 C 501.46 769.309 500.541 768.374 500.498 768.313 C 500.374 768.065 501.549 768.967 503.86 770.933 Z  M 472.851 759.151 C 470.415 761.078 466.868 763.015 463.897 764.046 L 462.002 764.701 L 460.779 764.09 C 459.217 763.325 457.687 763.104 457.692 763.659 C 457.689 764.345 456.938 768.592 456.588 769.828 C 456.417 770.492 456.113 771.215 455.912 771.446 C 455.601 771.79 455.6 771.678 455.837 770.73 C 456.305 768.853 456.481 766.531 456.317 764.23 L 456.161 762.021 L 457.743 760.579 C 458.626 759.794 459.79 758.854 460.377 758.485 L 461.403 757.845 L 463.093 758.506 C 464.016 758.866 465.355 759.234 466.03 759.321 C 467.549 759.515 470.225 759.299 471.96 758.825 C 472.648 758.651 473.295 758.527 473.379 758.538 C 473.475 758.575 473.232 758.857 472.851 759.151 Z  M 425.878 800.706 C 425.981 801.632 426.493 803.271 427.332 805.26 C 428.868 808.983 428.958 809.771 428.113 812.275 L 427.514 814.035 L 427.469 812.733 C 427.421 810.986 427.084 809.637 426.515 808.883 C 426.252 808.536 425.993 808.236 425.935 808.213 C 425.877 808.191 425.512 808.558 425.129 809.028 C 423.517 810.945 422.784 815.088 423.439 818.4 C 423.73 819.865 423.616 819.931 422.719 818.938 C 421.397 817.447 420.943 814.812 421.382 811.307 C 421.573 809.854 421.744 809.189 422.025 808.812 C 422.885 807.686 423.862 805.3 424.47 802.835 C 425.071 800.39 425.46 799.169 425.613 799.229 C 425.671 799.252 425.787 799.917 425.878 800.706 Z " fill="rgb(255,255,255)"/></g></g></svg>